<svg width="100%" height="100%" viewBox="0 0 24 24" version="1.1" xmlns="http://www.w3.org/2000/svg" xmlns:xlink="http://www.w3.org/1999/xlink" xml:space="preserve" xmlns:serif="http://www.serif.com/" style="fill-rule:evenodd;clip-rule:evenodd;stroke-linejoin:round;stroke-miterlimit:2;">
    <g transform="matrix(1,0,0,1,-90,0)">
        <g id="Dump-Server" serif:id="Dump Server" transform="matrix(0.24,0,0,0.24,89.52,0.24)">
            <rect x="2" y="-1" width="100" height="100" style="fill:none;"/>
            <clipPath id="_clip1">
                <rect x="2" y="-1" width="100" height="100"/>
            </clipPath>
            <g clip-path="url(#_clip1)">
                <g transform="matrix(50,0,0,50,2,-1)">
                    <rect x="0" y="0" width="2" height="2" style="fill:rgb(249,65,68);"/>
                </g>
                <g transform="matrix(0.595538,0,0,0.595538,22.222998,19.225572)">
                    <path d="M49.113,23.715C50.32,22.547 52.16,22.422 53.504,23.332L54.218,23.754L55.922,17.395L52.191,10.938C51.226,9.27 51.793,7.133 53.461,6.164C55.129,5.199 57.265,5.766 58.234,7.434L62.625,15.039C63.125,15.832 63.304,16.828 63.046,17.805L60.363,27.821C62.976,29.739 65.539,31.891 67.894,34.254L71.175,28.571C71.82,27.45 72.992,26.825 74.195,26.825L74.195,26.809L87.558,26.809C89.491,26.809 91.058,28.379 91.058,30.309C91.058,32.243 89.487,33.809 87.558,33.809L76.199,33.809L72.714,39.844C74.292,41.993 75.656,44.274 76.726,46.672C77.171,47.669 77.562,48.684 77.902,49.715L86.863,47.313C87.839,47.051 88.835,47.235 89.628,47.735L97.234,52.126C98.902,53.09 99.472,55.231 98.503,56.899C97.538,58.567 95.398,59.137 93.73,58.169L87.273,54.438L79.25,56.59C79.597,61.848 78.41,67.465 75.074,73.348C74.906,73.716 74.671,74.059 74.367,74.364C74.062,74.669 73.718,74.903 73.347,75.075C67.464,78.407 61.851,79.594 56.597,79.247L54.445,87.27L58.175,93.727C59.14,95.395 58.574,97.532 56.906,98.501C55.238,99.465 53.101,98.899 52.132,97.231L47.742,89.626C47.242,88.833 47.062,87.836 47.32,86.86L49.722,77.899C48.691,77.563 47.675,77.169 46.679,76.723C44.281,75.653 42,74.29 39.851,72.712L33.812,76.2L33.812,87.559C33.812,89.492 32.242,91.059 30.312,91.059C28.379,91.059 26.812,89.489 26.812,87.559L26.812,74.196L26.828,74.196C26.828,72.989 27.457,71.817 28.574,71.176L34.257,67.895C31.894,65.54 29.742,62.977 27.82,60.364L17.804,63.048C16.781,63.321 15.741,63.11 14.933,62.555L7.448,58.235C5.78,57.278 5.206,55.145 6.163,53.477C7.12,51.809 9.253,51.235 10.921,52.192L17.386,55.923L23.753,54.216L23.21,53.294C22.409,51.915 22.663,50.212 23.718,49.114C20.726,45.786 19.276,41.544 19.355,37.278C19.366,36.594 19.421,35.911 19.511,35.231L14.526,32.352L6.269,37.118C4.601,38.083 2.464,37.516 1.495,35.848C0.53,34.18 1.097,32.044 2.765,31.075L12.761,25.305C13.808,24.692 15.148,24.645 16.273,25.298L21.808,28.493C22.589,27.141 23.562,25.872 24.718,24.716C25.874,23.559 27.144,22.591 28.495,21.805L25.3,16.27C24.648,15.145 24.694,13.805 25.308,12.758L31.077,2.762C32.042,1.094 34.183,0.524 35.851,1.493C37.519,2.458 38.089,4.598 37.12,6.266L32.355,14.524L35.233,19.508C35.913,19.419 36.597,19.364 37.28,19.352C41.542,19.274 45.784,20.719 49.112,23.712L49.113,23.715ZM43.836,38.887L70.879,65.93C73.101,59.946 72.539,54.426 70.351,49.524C66.808,41.583 59.16,35.067 52.089,30.637L43.835,38.891L43.836,38.887ZM65.93,70.875L38.887,43.836C36.137,46.586 33.383,49.336 30.637,52.086C35.102,59.195 41.586,66.813 49.524,70.348C54.426,72.532 59.946,73.094 65.93,70.875L65.93,70.875ZM34.618,26.742C34.528,26.773 34.434,26.801 34.344,26.824C32.653,27.355 31.043,28.305 29.676,29.668C28.309,31.035 27.36,32.644 26.832,34.336C26.809,34.43 26.782,34.519 26.75,34.609C26.489,35.519 26.352,36.453 26.336,37.383C26.293,39.812 27.067,42.222 28.672,44.156L44.172,28.656C42.239,27.051 39.828,26.273 37.399,26.32C36.469,26.336 35.539,26.476 34.625,26.734L34.618,26.742Z" style="fill-rule:nonzero;"/>
                </g>
                <g transform="matrix(4.166667,0,0,4.166667,-373,-1)">
                    <path d="M99,12L101,15L104,16L105,15L106,13L105,11L104,10L102,9L99,12" style="fill-opacity:0.4;"/>
                </g>
            </g>
        </g>
        <g id="Colors">
        </g>
    </g>
</svg>
